<svg id="Grupo_65553" data-name="Grupo 65553" xmlns="http://www.w3.org/2000/svg" xmlns:xlink="http://www.w3.org/1999/xlink" width="72.377" height="73.92" viewBox="0 0 72.377 73.92">
  <defs>
    <clipPath id="clip-path">
      <rect id="Rectángulo_9073" data-name="Rectángulo 9073" width="72.377" height="73.92" fill="none"/>
    </clipPath>
  </defs>
  <rect id="Rectángulo_9071" data-name="Rectángulo 9071" width="18.837" height="15.772" transform="translate(26.764 50.854)" fill="#f2f4f8"/>
  <rect id="Rectángulo_9072" data-name="Rectángulo 9072" width="9.419" height="15.772" transform="translate(36.182 50.854)" fill="#d7daef"/>
  <g id="Grupo_65552" data-name="Grupo 65552">
    <g id="Grupo_65551" data-name="Grupo 65551" clip-path="url(#clip-path)">
      <path id="Trazado_132804" data-name="Trazado 132804" d="M0,95.054V46.988c.735-1.262,1.888-1.476,3.238-1.417,1.734.075,3.474.017,5.211.016l0,4.224c-1.154,0-2.31.042-3.461-.019-.651-.035-.763.187-.762.787q.026,20.456,0,40.912c0,.656.2.756.792.755q31.2-.029,62.391-.013c.574,0,.75-.123.747-.726-.027-4.616-.015-9.233-.015-13.849q0-13.567.011-27.133c0-.53-.1-.74-.685-.715-1.176.049-2.355.014-3.532.014q0-2.122,0-4.245H70a2.109,2.109,0,0,1,2.377,2.382q0,23.038,0,46.076a2.119,2.119,0,0,1-2.4,2.428q-11.166,0-22.331,0c-.282,0-.563.021-.845.032-4.253-.014-8.505-.035-12.758-.04-2.819,0-5.639.014-8.458.023-.282-.009-.564-.025-.846-.025q-11.167,0-22.333,0A2.218,2.218,0,0,1,.241,95.28c-.053-.1-.1-.22-.241-.226" transform="translate(0 -36.954)" fill="#6bbcb1"/>
      <path id="Trazado_132805" data-name="Trazado 132805" d="M82.03,67.965c1.178,0,2.357.035,3.532-.014.584-.025.686.185.685.716q-.022,13.566-.011,27.133c0,4.616-.012,9.233.015,13.849,0,.6-.173.726-.747.726q-31.2-.016-62.391.013c-.589,0-.793-.1-.792-.755q.034-20.456,0-40.912c0-.6.111-.821.762-.787,1.151.062,2.307.019,3.461.019q.031,2.123.061,4.245c-.008.259-.022.518-.022.777q0,15.268,0,30.536c0,1.854.76,2.616,2.609,2.616q10.6,0,21.205,0c1.3,0,2.591-.017,3.886-.026.118.006.235.016.353.016q12.606,0,25.212,0a2.043,2.043,0,0,0,2.141-2.192q.005-9.428,0-18.856,0-6.426-.017-12.853l.053-4.251" transform="translate(-18.105 -55.096)" fill="#ffce33"/>
      <path id="Trazado_132806" data-name="Trazado 132806" d="M219.285,12.868l-.053,4.251c-.965-.006-1.93-.017-2.895-.016l-24.787.015v-.035q0-3.159,0-6.316a2.147,2.147,0,0,0,0-4.294q0-3.226.007-6.452,4.623-.01,9.246-.019,8.047,0,16.094,0a2.1,2.1,0,0,1,2.353,2.341q.013,3.14.028,6.281,0,2.122,0,4.244" transform="translate(-155.36 0)" fill="#508d85"/>
      <path id="Trazado_132807" data-name="Trazado 132807" d="M72.445,10.776q0,3.158,0,6.316c-.306.006-.612.018-.917.019H44.757q-.031-2.123-.061-4.245,0-2.112,0-4.224c.013-2.117.021-4.234.039-6.351A2.106,2.106,0,0,1,46.969.014Q59.605,0,72.241.015c.07,0,.141.01.211.016q0,3.226-.007,6.452l-.007.055a2.092,2.092,0,1,0,0,4.183ZM57.594,8.615a2.117,2.117,0,1,0-2.1,2.132,2.14,2.14,0,0,0,2.1-2.132m8.482.042a2.117,2.117,0,1,0-2.145,2.09,2.14,2.14,0,0,0,2.145-2.09" transform="translate(-36.251 -0.009)" fill="#6bbcb1"/>
      <path id="Trazado_132808" data-name="Trazado 132808" d="M44.918,90.44H71.686c.306,0,.612-.012.917-.018v.035q0,16.943-.007,33.886c-1.3.009-2.591.025-3.886.026q-10.6,0-21.205,0c-1.849,0-2.609-.762-2.609-2.616q0-15.268,0-30.536c0-.259.015-.518.022-.777m17.114,8.469c-2.117,0-4.234-.015-6.351.005a2.127,2.127,0,1,0-.064,4.254q6.386.03,12.773,0a1.949,1.949,0,0,0,1.723-.936,2.107,2.107,0,0,0-1.8-3.316c-2.093-.029-4.187-.007-6.281-.007m-.064,12.75c2.117,0,4.234.014,6.351-.005a2.127,2.127,0,1,0,.065-4.254q-6.386-.03-12.773,0a1.951,1.951,0,0,0-1.724.935,2.108,2.108,0,0,0,1.8,3.316c2.093.029,4.187.007,6.281.007" transform="translate(-36.412 -73.337)" fill="#f2f4f8"/>
      <path id="Trazado_132809" data-name="Trazado 132809" d="M191.511,124.427q0-16.943.007-33.886,12.394-.008,24.787-.015c.965,0,1.93.011,2.895.016q.009,6.426.017,12.853,0,9.428,0,18.856a2.043,2.043,0,0,1-2.141,2.192q-12.606.007-25.212,0c-.118,0-.235-.011-.352-.016m17.028-8.454a2.08,2.08,0,0,0,1.858-1.243,2.014,2.014,0,0,0-.4-2.352c-.772-.825-1.579-1.619-2.394-2.4-.291-.279-.293-.455,0-.733.75-.715,1.477-1.454,2.2-2.195a2.131,2.131,0,0,0-.882-3.768c-4.1-1.387-8.207-2.737-12.309-4.111A2.156,2.156,0,0,0,193.8,102c1.374,4.1,2.732,8.211,4.11,12.313a2.132,2.132,0,0,0,3.727.9c.692-.673,1.406-1.33,2.039-2.056.451-.517.731-.428,1.144.026.665.73,1.39,1.408,2.09,2.106a2.286,2.286,0,0,0,1.624.689" transform="translate(-155.328 -73.423)" fill="#d7daef"/>
      <path id="Trazado_132810" data-name="Trazado 132810" d="M191.541,34.263a2.147,2.147,0,0,1,0,4.294l-.007-.056q0-2.091,0-4.183Z" transform="translate(-155.347 -27.79)" fill="#d7daef"/>
      <path id="Trazado_132811" data-name="Trazado 132811" d="M94.79,36.523a2.117,2.117,0,1,1-2.131-2.1,2.142,2.142,0,0,1,2.131,2.1" transform="translate(-73.447 -27.917)" fill="#f2f4f8"/>
      <path id="Trazado_132812" data-name="Trazado 132812" d="M139.683,36.563a2.117,2.117,0,1,1-2.09-2.144,2.142,2.142,0,0,1,2.09,2.144" transform="translate(-109.858 -27.916)" fill="#f2f4f8"/>
      <path id="Trazado_132813" data-name="Trazado 132813" d="M182.459,34.557q0,2.091,0,4.183a2.092,2.092,0,1,1,0-4.183" transform="translate(-146.272 -28.028)" fill="#f2f4f8"/>
      <path id="Trazado_132814" data-name="Trazado 132814" d="M99,135.311c2.093,0,4.187-.022,6.28.007a2.107,2.107,0,0,1,1.8,3.316,1.948,1.948,0,0,1-1.723.936q-6.386.025-12.773,0a2.127,2.127,0,1,1,.064-4.254c2.117-.02,4.234-.005,6.351-.005" transform="translate(-73.384 -109.74)" fill="#d7daef"/>
      <path id="Trazado_132815" data-name="Trazado 132815" d="M98.982,184.489c-2.094,0-4.187.022-6.281-.007a2.108,2.108,0,0,1-1.8-3.316,1.95,1.95,0,0,1,1.724-.935q6.386-.025,12.773,0a2.127,2.127,0,1,1-.065,4.254c-2.117.02-4.234.005-6.351.005" transform="translate(-73.427 -146.167)" fill="#d7daef"/>
      <path id="Trazado_132816" data-name="Trazado 132816" d="M217.692,152.41a2.286,2.286,0,0,1-1.624-.689c-.7-.7-1.424-1.376-2.09-2.106-.413-.454-.693-.543-1.144-.026-.633.726-1.347,1.383-2.039,2.056a2.132,2.132,0,0,1-3.727-.9c-1.378-4.1-2.736-8.21-4.11-12.313a2.156,2.156,0,0,1,2.809-2.827c4.1,1.374,8.211,2.724,12.309,4.111a2.131,2.131,0,0,1,.882,3.768c-.725.74-1.452,1.48-2.2,2.195-.292.278-.29.455,0,.733.815.783,1.622,1.576,2.394,2.4a2.014,2.014,0,0,1,.4,2.352,2.08,2.08,0,0,1-1.858,1.243" transform="translate(-164.482 -109.859)" fill="#d44f4a"/>
      <path id="Trazado_132817" data-name="Trazado 132817" d="M142.356,359.934H116.528a1.544,1.544,0,0,1-1.544-1.544v-4.206a1.544,1.544,0,0,1,1.544-1.544h25.827a1.544,1.544,0,0,1,1.544,1.544v4.206a1.544,1.544,0,0,1-1.544,1.544" transform="translate(-93.26 -286.014)" fill="#d7daef"/>
    </g>
  </g>
</svg>
